# xmcd CD database file
#
# Track frame offsets:
#        183
#        13123
#        31268
#        43370
#        59328
#        72543
#        88490
#        100710
#        114145
#        126655
#        139690
#        153588
#
# Disc length: 2216 seconds
#
# Revision: 0
# Processed by: cddbd v1.5.2PL0 Copyright (c) Steve Scherf et al.
# Submitted via: CUERipper 2.1.5
#
DISCID=ae08a60c
DTITLE=Gladys Knight and The Pips - Silk and Soul
DYEAR=1968
DGENRE=
TTITLE0=I Wish It Would Rain
TTITLE1=The Look of Love
TTITLE2=Goin' Out of My Head
TTITLE3=Yesterday
TTITLE4=Groovin'
TTITLE5=You've Lost That Lovin' Feelin'
TTITLE6=Theme From 'Valley of the Dolls'
TTITLE7=Baby I Need Your Loving
TTITLE8=Together
TTITLE9=Tracks of My Tears
TTITLE10=You're My Everything
TTITLE11=Every Little Bit Hurts
EXTD=
EXTT0=
EXTT1=
EXTT2=
EXTT3=
EXTT4=
EXTT5=
EXTT6=
EXTT7=
EXTT8=
EXTT9=
EXTT10=
EXTT11=
PLAYORDER=
